<mxfile host="Electron" modified="2024-07-06T15:57:42.071Z" agent="Mozilla/5.0 (Macintosh; Intel Mac OS X 10_15_7) AppleWebKit/537.36 (KHTML, like Gecko) draw.io/22.1.16 Chrome/120.0.6099.109 Electron/28.1.0 Safari/537.36" etag="InWHT1UYaC89UmYEbLXY" version="22.1.16" type="device">
  <diagram name="Page-1" id="hLXOPhipxFmf-Hl2-xvw">
    <mxGraphModel dx="776" dy="511" grid="1" gridSize="10" guides="1" tooltips="1" connect="1" arrows="1" fold="1" page="1" pageScale="1" pageWidth="827" pageHeight="1169" math="0" shadow="0">
      <root>
        <mxCell id="0" />
        <mxCell id="1" parent="0" />
        <mxCell id="AF5ajX9JgWAJOoz4yNSb-2" value="K&lt;sub&gt;1&lt;/sub&gt;" style="rounded=0;whiteSpace=wrap;html=1;" vertex="1" parent="1">
          <mxGeometry x="60" y="120" width="30" height="30" as="geometry" />
        </mxCell>
        <mxCell id="AF5ajX9JgWAJOoz4yNSb-3" value="K&lt;span style=&quot;font-size: 10px;&quot;&gt;2&lt;/span&gt;" style="rounded=0;whiteSpace=wrap;html=1;" vertex="1" parent="1">
          <mxGeometry x="100" y="120" width="30" height="30" as="geometry" />
        </mxCell>
        <mxCell id="AF5ajX9JgWAJOoz4yNSb-4" value="K&lt;span style=&quot;font-size: 10px;&quot;&gt;3&lt;/span&gt;" style="rounded=0;whiteSpace=wrap;html=1;" vertex="1" parent="1">
          <mxGeometry x="140" y="120" width="30" height="30" as="geometry" />
        </mxCell>
        <mxCell id="AF5ajX9JgWAJOoz4yNSb-5" value="K&lt;span style=&quot;font-size: 10px;&quot;&gt;4&lt;/span&gt;" style="rounded=0;whiteSpace=wrap;html=1;" vertex="1" parent="1">
          <mxGeometry x="180" y="120" width="30" height="30" as="geometry" />
        </mxCell>
        <mxCell id="AF5ajX9JgWAJOoz4yNSb-6" value="K&lt;span style=&quot;font-size: 10px;&quot;&gt;5&lt;/span&gt;" style="rounded=0;whiteSpace=wrap;html=1;" vertex="1" parent="1">
          <mxGeometry x="220" y="120" width="30" height="30" as="geometry" />
        </mxCell>
        <mxCell id="AF5ajX9JgWAJOoz4yNSb-21" value="K&lt;span style=&quot;font-size: 10px;&quot;&gt;6&lt;/span&gt;" style="rounded=0;whiteSpace=wrap;html=1;" vertex="1" parent="1">
          <mxGeometry x="260" y="120" width="30" height="30" as="geometry" />
        </mxCell>
        <mxCell id="AF5ajX9JgWAJOoz4yNSb-22" value="K&lt;span style=&quot;font-size: 10px;&quot;&gt;7&lt;/span&gt;" style="rounded=0;whiteSpace=wrap;html=1;" vertex="1" parent="1">
          <mxGeometry x="300" y="120" width="30" height="30" as="geometry" />
        </mxCell>
        <mxCell id="AF5ajX9JgWAJOoz4yNSb-23" value="K&lt;span style=&quot;font-size: 10px;&quot;&gt;8&lt;/span&gt;" style="rounded=0;whiteSpace=wrap;html=1;" vertex="1" parent="1">
          <mxGeometry x="340" y="120" width="30" height="30" as="geometry" />
        </mxCell>
        <mxCell id="AF5ajX9JgWAJOoz4yNSb-25" value="K&lt;span style=&quot;font-size: 10px;&quot;&gt;9&lt;/span&gt;" style="rounded=0;whiteSpace=wrap;html=1;" vertex="1" parent="1">
          <mxGeometry x="380" y="120" width="30" height="30" as="geometry" />
        </mxCell>
        <mxCell id="AF5ajX9JgWAJOoz4yNSb-26" value="K&lt;span style=&quot;font-size: 10px;&quot;&gt;10&lt;/span&gt;" style="rounded=0;whiteSpace=wrap;html=1;" vertex="1" parent="1">
          <mxGeometry x="420" y="120" width="30" height="30" as="geometry" />
        </mxCell>
        <mxCell id="AF5ajX9JgWAJOoz4yNSb-27" value="K&lt;span style=&quot;font-size: 10px;&quot;&gt;n-4&lt;/span&gt;" style="rounded=0;whiteSpace=wrap;html=1;" vertex="1" parent="1">
          <mxGeometry x="500" y="120" width="30" height="30" as="geometry" />
        </mxCell>
        <mxCell id="AF5ajX9JgWAJOoz4yNSb-28" value="K&lt;span style=&quot;font-size: 10px;&quot;&gt;n-3&lt;/span&gt;" style="rounded=0;whiteSpace=wrap;html=1;" vertex="1" parent="1">
          <mxGeometry x="540" y="120" width="30" height="30" as="geometry" />
        </mxCell>
        <mxCell id="AF5ajX9JgWAJOoz4yNSb-29" value="K&lt;span style=&quot;font-size: 10px;&quot;&gt;n-2&lt;/span&gt;" style="rounded=0;whiteSpace=wrap;html=1;" vertex="1" parent="1">
          <mxGeometry x="580" y="120" width="30" height="30" as="geometry" />
        </mxCell>
        <mxCell id="AF5ajX9JgWAJOoz4yNSb-32" value="K&lt;span style=&quot;font-size: 10px;&quot;&gt;n-1&lt;/span&gt;" style="rounded=0;whiteSpace=wrap;html=1;" vertex="1" parent="1">
          <mxGeometry x="620" y="120" width="30" height="30" as="geometry" />
        </mxCell>
        <mxCell id="AF5ajX9JgWAJOoz4yNSb-33" value="K&lt;span style=&quot;font-size: 10px;&quot;&gt;n&lt;/span&gt;" style="rounded=0;whiteSpace=wrap;html=1;" vertex="1" parent="1">
          <mxGeometry x="660" y="120" width="30" height="30" as="geometry" />
        </mxCell>
        <mxCell id="AF5ajX9JgWAJOoz4yNSb-36" value="" style="endArrow=none;dashed=1;html=1;dashPattern=1 3;strokeWidth=2;rounded=0;" edge="1" parent="1">
          <mxGeometry width="50" height="50" relative="1" as="geometry">
            <mxPoint x="461" y="135" as="sourcePoint" />
            <mxPoint x="491" y="135" as="targetPoint" />
          </mxGeometry>
        </mxCell>
        <mxCell id="AF5ajX9JgWAJOoz4yNSb-38" value="" style="shape=curlyBracket;whiteSpace=wrap;html=1;rounded=1;flipH=1;labelPosition=right;verticalLabelPosition=middle;align=left;verticalAlign=middle;rotation=-90;" vertex="1" parent="1">
          <mxGeometry x="365" y="-215" width="20" height="630" as="geometry" />
        </mxCell>
        <UserObject label="Input: n data entries" placeholders="1" name="Variable" id="AF5ajX9JgWAJOoz4yNSb-40">
          <mxCell style="text;html=1;strokeColor=none;fillColor=none;align=center;verticalAlign=middle;whiteSpace=wrap;overflow=hidden;" vertex="1" parent="1">
            <mxGeometry x="310" y="70" width="140" height="20" as="geometry" />
          </mxCell>
        </UserObject>
        <mxCell id="AF5ajX9JgWAJOoz4yNSb-41" value="" style="shape=curlyBracket;whiteSpace=wrap;html=1;rounded=1;labelPosition=left;verticalLabelPosition=middle;align=right;verticalAlign=middle;rotation=-90;size=0.5;" vertex="1" parent="1">
          <mxGeometry x="145" y="70" width="20" height="190" as="geometry" />
        </mxCell>
        <mxCell id="AF5ajX9JgWAJOoz4yNSb-43" value="" style="shape=curlyBracket;whiteSpace=wrap;html=1;rounded=1;labelPosition=left;verticalLabelPosition=middle;align=right;verticalAlign=middle;rotation=-90;size=0.5;" vertex="1" parent="1">
          <mxGeometry x="345" y="70" width="20" height="190" as="geometry" />
        </mxCell>
        <mxCell id="AF5ajX9JgWAJOoz4yNSb-44" value="" style="shape=curlyBracket;whiteSpace=wrap;html=1;rounded=1;labelPosition=left;verticalLabelPosition=middle;align=right;verticalAlign=middle;rotation=-90;size=0.5;" vertex="1" parent="1">
          <mxGeometry x="585" y="70" width="20" height="190" as="geometry" />
        </mxCell>
        <mxCell id="AF5ajX9JgWAJOoz4yNSb-48" value="" style="endArrow=none;dashed=1;html=1;dashPattern=1 3;strokeWidth=2;rounded=0;" edge="1" parent="1">
          <mxGeometry width="50" height="50" relative="1" as="geometry">
            <mxPoint x="460.36" y="194.73" as="sourcePoint" />
            <mxPoint x="490.36" y="194.73" as="targetPoint" />
          </mxGeometry>
        </mxCell>
        <mxCell id="AF5ajX9JgWAJOoz4yNSb-56" style="edgeStyle=orthogonalEdgeStyle;rounded=0;orthogonalLoop=1;jettySize=auto;html=1;entryX=0.5;entryY=0;entryDx=0;entryDy=0;" edge="1" parent="1" source="AF5ajX9JgWAJOoz4yNSb-50" target="AF5ajX9JgWAJOoz4yNSb-53">
          <mxGeometry relative="1" as="geometry" />
        </mxCell>
        <mxCell id="AF5ajX9JgWAJOoz4yNSb-50" value="F&lt;sub style=&quot;border-color: var(--border-color);&quot;&gt;(k&lt;sub style=&quot;border-color: var(--border-color);&quot;&gt;1&lt;/sub&gt;, k&lt;sub style=&quot;border-color: var(--border-color);&quot;&gt;2&lt;/sub&gt;, k&lt;sub style=&quot;border-color: var(--border-color);&quot;&gt;3&lt;/sub&gt;, k&lt;sub style=&quot;border-color: var(--border-color);&quot;&gt;4&lt;/sub&gt;, k&lt;sub style=&quot;border-color: var(--border-color);&quot;&gt;5&lt;/sub&gt;)&lt;/sub&gt;" style="rounded=0;whiteSpace=wrap;html=1;" vertex="1" parent="1">
          <mxGeometry x="100" y="180" width="110" height="30" as="geometry" />
        </mxCell>
        <mxCell id="AF5ajX9JgWAJOoz4yNSb-57" style="edgeStyle=orthogonalEdgeStyle;rounded=0;orthogonalLoop=1;jettySize=auto;html=1;entryX=0.5;entryY=0;entryDx=0;entryDy=0;" edge="1" parent="1" source="AF5ajX9JgWAJOoz4yNSb-51" target="AF5ajX9JgWAJOoz4yNSb-54">
          <mxGeometry relative="1" as="geometry" />
        </mxCell>
        <mxCell id="AF5ajX9JgWAJOoz4yNSb-51" value="F&lt;sub&gt;(k&lt;sub&gt;6&lt;/sub&gt;, k&lt;sub&gt;7&lt;/sub&gt;, k&lt;sub&gt;8&lt;/sub&gt;, k&lt;sub&gt;9&lt;/sub&gt;, k&lt;sub&gt;10&lt;/sub&gt;)&lt;/sub&gt;" style="rounded=0;whiteSpace=wrap;html=1;" vertex="1" parent="1">
          <mxGeometry x="300" y="180" width="110" height="30" as="geometry" />
        </mxCell>
        <mxCell id="AF5ajX9JgWAJOoz4yNSb-58" style="edgeStyle=orthogonalEdgeStyle;rounded=0;orthogonalLoop=1;jettySize=auto;html=1;entryX=0.5;entryY=0;entryDx=0;entryDy=0;" edge="1" parent="1" source="AF5ajX9JgWAJOoz4yNSb-52" target="AF5ajX9JgWAJOoz4yNSb-55">
          <mxGeometry relative="1" as="geometry" />
        </mxCell>
        <mxCell id="AF5ajX9JgWAJOoz4yNSb-52" value="F&lt;sub&gt;(k&lt;sub&gt;n-4&lt;/sub&gt;, k&lt;sub&gt;n-3&lt;/sub&gt;, k&lt;sub&gt;n-2&lt;/sub&gt;, k&lt;sub&gt;n-1&lt;/sub&gt;, k&lt;sub&gt;n&lt;/sub&gt;)&lt;/sub&gt;" style="rounded=0;whiteSpace=wrap;html=1;" vertex="1" parent="1">
          <mxGeometry x="530" y="180" width="130" height="30" as="geometry" />
        </mxCell>
        <mxCell id="AF5ajX9JgWAJOoz4yNSb-53" value="x&lt;sub&gt;1&lt;/sub&gt;" style="rounded=0;whiteSpace=wrap;html=1;" vertex="1" parent="1">
          <mxGeometry x="140" y="250" width="30" height="30" as="geometry" />
        </mxCell>
        <mxCell id="AF5ajX9JgWAJOoz4yNSb-54" value="x&lt;sub&gt;2&lt;/sub&gt;" style="rounded=0;whiteSpace=wrap;html=1;" vertex="1" parent="1">
          <mxGeometry x="340" y="250" width="30" height="30" as="geometry" />
        </mxCell>
        <mxCell id="AF5ajX9JgWAJOoz4yNSb-55" value="x&lt;sub&gt;n/5&lt;/sub&gt;" style="rounded=0;whiteSpace=wrap;html=1;" vertex="1" parent="1">
          <mxGeometry x="580" y="250" width="30" height="30" as="geometry" />
        </mxCell>
        <mxCell id="AF5ajX9JgWAJOoz4yNSb-59" value="" style="endArrow=none;dashed=1;html=1;dashPattern=1 3;strokeWidth=2;rounded=0;" edge="1" parent="1">
          <mxGeometry width="50" height="50" relative="1" as="geometry">
            <mxPoint x="460" y="270" as="sourcePoint" />
            <mxPoint x="490" y="270" as="targetPoint" />
          </mxGeometry>
        </mxCell>
        <mxCell id="AF5ajX9JgWAJOoz4yNSb-60" value="K&lt;sub&gt;1&lt;/sub&gt;" style="rounded=0;whiteSpace=wrap;html=1;" vertex="1" parent="1">
          <mxGeometry x="60" y="479" width="30" height="30" as="geometry" />
        </mxCell>
        <mxCell id="AF5ajX9JgWAJOoz4yNSb-61" value="K&lt;span style=&quot;font-size: 10px;&quot;&gt;2&lt;/span&gt;" style="rounded=0;whiteSpace=wrap;html=1;" vertex="1" parent="1">
          <mxGeometry x="100" y="479" width="30" height="30" as="geometry" />
        </mxCell>
        <mxCell id="AF5ajX9JgWAJOoz4yNSb-62" value="K&lt;span style=&quot;font-size: 10px;&quot;&gt;3&lt;/span&gt;" style="rounded=0;whiteSpace=wrap;html=1;" vertex="1" parent="1">
          <mxGeometry x="140" y="479" width="30" height="30" as="geometry" />
        </mxCell>
        <mxCell id="AF5ajX9JgWAJOoz4yNSb-63" value="K&lt;span style=&quot;font-size: 10px;&quot;&gt;4&lt;/span&gt;" style="rounded=0;whiteSpace=wrap;html=1;" vertex="1" parent="1">
          <mxGeometry x="180" y="479" width="30" height="30" as="geometry" />
        </mxCell>
        <mxCell id="AF5ajX9JgWAJOoz4yNSb-64" value="K&lt;span style=&quot;font-size: 10px;&quot;&gt;5&lt;/span&gt;" style="rounded=0;whiteSpace=wrap;html=1;" vertex="1" parent="1">
          <mxGeometry x="220" y="479" width="30" height="30" as="geometry" />
        </mxCell>
        <mxCell id="AF5ajX9JgWAJOoz4yNSb-65" value="K&lt;span style=&quot;font-size: 10px;&quot;&gt;6&lt;/span&gt;" style="rounded=0;whiteSpace=wrap;html=1;" vertex="1" parent="1">
          <mxGeometry x="260" y="479" width="30" height="30" as="geometry" />
        </mxCell>
        <mxCell id="AF5ajX9JgWAJOoz4yNSb-66" value="K&lt;span style=&quot;font-size: 10px;&quot;&gt;7&lt;/span&gt;" style="rounded=0;whiteSpace=wrap;html=1;" vertex="1" parent="1">
          <mxGeometry x="300" y="479" width="30" height="30" as="geometry" />
        </mxCell>
        <mxCell id="AF5ajX9JgWAJOoz4yNSb-67" value="K&lt;span style=&quot;font-size: 10px;&quot;&gt;8&lt;/span&gt;" style="rounded=0;whiteSpace=wrap;html=1;" vertex="1" parent="1">
          <mxGeometry x="340" y="479" width="30" height="30" as="geometry" />
        </mxCell>
        <mxCell id="AF5ajX9JgWAJOoz4yNSb-68" value="K&lt;span style=&quot;font-size: 10px;&quot;&gt;9&lt;/span&gt;" style="rounded=0;whiteSpace=wrap;html=1;" vertex="1" parent="1">
          <mxGeometry x="380" y="479" width="30" height="30" as="geometry" />
        </mxCell>
        <mxCell id="AF5ajX9JgWAJOoz4yNSb-69" value="K&lt;span style=&quot;font-size: 10px;&quot;&gt;10&lt;/span&gt;" style="rounded=0;whiteSpace=wrap;html=1;" vertex="1" parent="1">
          <mxGeometry x="420" y="479" width="30" height="30" as="geometry" />
        </mxCell>
        <mxCell id="AF5ajX9JgWAJOoz4yNSb-73" value="K&lt;span style=&quot;font-size: 10px;&quot;&gt;n-1&lt;/span&gt;" style="rounded=0;whiteSpace=wrap;html=1;" vertex="1" parent="1">
          <mxGeometry x="500" y="479" width="30" height="30" as="geometry" />
        </mxCell>
        <mxCell id="AF5ajX9JgWAJOoz4yNSb-74" value="K&lt;span style=&quot;font-size: 10px;&quot;&gt;n&lt;/span&gt;" style="rounded=0;whiteSpace=wrap;html=1;" vertex="1" parent="1">
          <mxGeometry x="540" y="479" width="30" height="30" as="geometry" />
        </mxCell>
        <mxCell id="AF5ajX9JgWAJOoz4yNSb-75" value="" style="endArrow=none;dashed=1;html=1;dashPattern=1 3;strokeWidth=2;rounded=0;" edge="1" parent="1">
          <mxGeometry width="50" height="50" relative="1" as="geometry">
            <mxPoint x="461" y="494" as="sourcePoint" />
            <mxPoint x="491" y="494" as="targetPoint" />
          </mxGeometry>
        </mxCell>
        <mxCell id="AF5ajX9JgWAJOoz4yNSb-76" value="" style="shape=curlyBracket;whiteSpace=wrap;html=1;rounded=1;flipH=1;labelPosition=right;verticalLabelPosition=middle;align=left;verticalAlign=middle;rotation=-90;" vertex="1" parent="1">
          <mxGeometry x="365" y="144" width="20" height="630" as="geometry" />
        </mxCell>
        <UserObject label="n data entries, when n is not a multiple of 5" placeholders="1" name="Variable" id="AF5ajX9JgWAJOoz4yNSb-77">
          <mxCell style="text;html=1;strokeColor=none;fillColor=none;align=center;verticalAlign=middle;whiteSpace=wrap;overflow=hidden;" vertex="1" parent="1">
            <mxGeometry x="250" y="429" width="240" height="20" as="geometry" />
          </mxCell>
        </UserObject>
        <mxCell id="AF5ajX9JgWAJOoz4yNSb-78" value="" style="shape=curlyBracket;whiteSpace=wrap;html=1;rounded=1;labelPosition=left;verticalLabelPosition=middle;align=right;verticalAlign=middle;rotation=-90;size=0.5;" vertex="1" parent="1">
          <mxGeometry x="145" y="429" width="20" height="190" as="geometry" />
        </mxCell>
        <mxCell id="AF5ajX9JgWAJOoz4yNSb-79" value="" style="shape=curlyBracket;whiteSpace=wrap;html=1;rounded=1;labelPosition=left;verticalLabelPosition=middle;align=right;verticalAlign=middle;rotation=-90;size=0.5;" vertex="1" parent="1">
          <mxGeometry x="345" y="429" width="20" height="190" as="geometry" />
        </mxCell>
        <mxCell id="AF5ajX9JgWAJOoz4yNSb-80" value="" style="shape=curlyBracket;whiteSpace=wrap;html=1;rounded=1;labelPosition=left;verticalLabelPosition=middle;align=right;verticalAlign=middle;rotation=-90;size=0.5;" vertex="1" parent="1">
          <mxGeometry x="585" y="429" width="20" height="190" as="geometry" />
        </mxCell>
        <mxCell id="AF5ajX9JgWAJOoz4yNSb-81" value="" style="endArrow=none;dashed=1;html=1;dashPattern=1 3;strokeWidth=2;rounded=0;" edge="1" parent="1">
          <mxGeometry width="50" height="50" relative="1" as="geometry">
            <mxPoint x="460.36" y="553.73" as="sourcePoint" />
            <mxPoint x="490.36" y="553.73" as="targetPoint" />
          </mxGeometry>
        </mxCell>
        <mxCell id="AF5ajX9JgWAJOoz4yNSb-82" style="edgeStyle=orthogonalEdgeStyle;rounded=0;orthogonalLoop=1;jettySize=auto;html=1;entryX=0.5;entryY=0;entryDx=0;entryDy=0;" edge="1" parent="1" source="AF5ajX9JgWAJOoz4yNSb-83" target="AF5ajX9JgWAJOoz4yNSb-88">
          <mxGeometry relative="1" as="geometry" />
        </mxCell>
        <mxCell id="AF5ajX9JgWAJOoz4yNSb-83" value="F&lt;sub style=&quot;border-color: var(--border-color);&quot;&gt;(k&lt;sub style=&quot;border-color: var(--border-color);&quot;&gt;1&lt;/sub&gt;, k&lt;sub style=&quot;border-color: var(--border-color);&quot;&gt;2&lt;/sub&gt;, k&lt;sub style=&quot;border-color: var(--border-color);&quot;&gt;3&lt;/sub&gt;, k&lt;sub style=&quot;border-color: var(--border-color);&quot;&gt;4&lt;/sub&gt;, k&lt;sub style=&quot;border-color: var(--border-color);&quot;&gt;5&lt;/sub&gt;)&lt;/sub&gt;" style="rounded=0;whiteSpace=wrap;html=1;" vertex="1" parent="1">
          <mxGeometry x="100" y="539" width="110" height="30" as="geometry" />
        </mxCell>
        <mxCell id="AF5ajX9JgWAJOoz4yNSb-84" style="edgeStyle=orthogonalEdgeStyle;rounded=0;orthogonalLoop=1;jettySize=auto;html=1;entryX=0.5;entryY=0;entryDx=0;entryDy=0;" edge="1" parent="1" source="AF5ajX9JgWAJOoz4yNSb-85" target="AF5ajX9JgWAJOoz4yNSb-89">
          <mxGeometry relative="1" as="geometry" />
        </mxCell>
        <mxCell id="AF5ajX9JgWAJOoz4yNSb-85" value="F&lt;sub&gt;(k&lt;sub&gt;6&lt;/sub&gt;, k&lt;sub&gt;7&lt;/sub&gt;, k&lt;sub&gt;8&lt;/sub&gt;, k&lt;sub&gt;9&lt;/sub&gt;, k&lt;sub&gt;10&lt;/sub&gt;)&lt;/sub&gt;" style="rounded=0;whiteSpace=wrap;html=1;" vertex="1" parent="1">
          <mxGeometry x="300" y="539" width="110" height="30" as="geometry" />
        </mxCell>
        <mxCell id="AF5ajX9JgWAJOoz4yNSb-86" style="edgeStyle=orthogonalEdgeStyle;rounded=0;orthogonalLoop=1;jettySize=auto;html=1;entryX=0.5;entryY=0;entryDx=0;entryDy=0;" edge="1" parent="1" source="AF5ajX9JgWAJOoz4yNSb-87" target="AF5ajX9JgWAJOoz4yNSb-90">
          <mxGeometry relative="1" as="geometry" />
        </mxCell>
        <mxCell id="AF5ajX9JgWAJOoz4yNSb-87" value="F&lt;sub&gt;(k&lt;sub&gt;n-1&lt;/sub&gt;, k&lt;sub&gt;n&lt;/sub&gt;)&lt;/sub&gt;" style="rounded=0;whiteSpace=wrap;html=1;" vertex="1" parent="1">
          <mxGeometry x="530" y="539" width="130" height="30" as="geometry" />
        </mxCell>
        <mxCell id="AF5ajX9JgWAJOoz4yNSb-88" value="x&lt;sub&gt;1&lt;/sub&gt;" style="rounded=0;whiteSpace=wrap;html=1;" vertex="1" parent="1">
          <mxGeometry x="140" y="609" width="30" height="30" as="geometry" />
        </mxCell>
        <mxCell id="AF5ajX9JgWAJOoz4yNSb-89" value="x&lt;sub&gt;2&lt;/sub&gt;" style="rounded=0;whiteSpace=wrap;html=1;" vertex="1" parent="1">
          <mxGeometry x="340" y="609" width="30" height="30" as="geometry" />
        </mxCell>
        <mxCell id="AF5ajX9JgWAJOoz4yNSb-90" value="x&lt;sub&gt;n/5&lt;/sub&gt;" style="rounded=0;whiteSpace=wrap;html=1;" vertex="1" parent="1">
          <mxGeometry x="580" y="609" width="30" height="30" as="geometry" />
        </mxCell>
        <mxCell id="AF5ajX9JgWAJOoz4yNSb-91" value="" style="endArrow=none;dashed=1;html=1;dashPattern=1 3;strokeWidth=2;rounded=0;" edge="1" parent="1">
          <mxGeometry width="50" height="50" relative="1" as="geometry">
            <mxPoint x="460" y="629" as="sourcePoint" />
            <mxPoint x="490" y="629" as="targetPoint" />
          </mxGeometry>
        </mxCell>
        <mxCell id="AF5ajX9JgWAJOoz4yNSb-92" value="" style="rounded=0;whiteSpace=wrap;html=1;gradientColor=none;fillStyle=zigzag-line;fillColor=#E6E6E6;" vertex="1" parent="1">
          <mxGeometry x="660" y="479" width="30" height="30" as="geometry" />
        </mxCell>
        <mxCell id="AF5ajX9JgWAJOoz4yNSb-96" value="" style="rounded=0;whiteSpace=wrap;html=1;gradientColor=none;fillStyle=zigzag-line;fillColor=#E6E6E6;" vertex="1" parent="1">
          <mxGeometry x="620" y="479" width="30" height="30" as="geometry" />
        </mxCell>
        <mxCell id="AF5ajX9JgWAJOoz4yNSb-97" value="" style="rounded=0;whiteSpace=wrap;html=1;gradientColor=none;fillStyle=zigzag-line;fillColor=#E6E6E6;" vertex="1" parent="1">
          <mxGeometry x="580" y="479" width="30" height="30" as="geometry" />
        </mxCell>
        <mxCell id="AF5ajX9JgWAJOoz4yNSb-99" value="" style="shape=curlyBracket;whiteSpace=wrap;html=1;rounded=1;labelPosition=left;verticalLabelPosition=middle;align=right;verticalAlign=middle;rotation=-90;size=0.5;" vertex="1" parent="1">
          <mxGeometry x="365" y="65" width="20" height="470" as="geometry" />
        </mxCell>
        <UserObject label="Output:&amp;nbsp;⌈n / 5&lt;span class=&quot;mclose&quot;&gt;⌉&amp;nbsp;&lt;/span&gt;data entries" placeholders="1" name="Variable" id="AF5ajX9JgWAJOoz4yNSb-100">
          <mxCell style="text;html=1;strokeColor=none;fillColor=none;align=center;verticalAlign=middle;whiteSpace=wrap;overflow=hidden;" vertex="1" parent="1">
            <mxGeometry x="220" y="320" width="320" height="40" as="geometry" />
          </mxCell>
        </UserObject>
      </root>
    </mxGraphModel>
  </diagram>
</mxfile>
